<svg width="16" height="16" viewBox="0 0 16 16" fill="none" xmlns="http://www.w3.org/2000/svg">
<path d="M14.1761 7.96963H0.662598V7.67642H1.55629V5.05672C1.55651 4.94216 1.58718 4.82964 1.64527 4.73036C1.70335 4.63108 1.78682 4.5485 1.88739 4.49081L7.55428 1.25201C7.66471 1.18881 7.79018 1.15552 7.91793 1.15552C8.04567 1.15552 8.17114 1.18881 8.28158 1.25201L13.9089 4.50338C13.9899 4.55046 14.057 4.61747 14.1037 4.69781C14.1504 4.77815 14.1751 4.86907 14.1753 4.96164L14.1761 7.96963ZM1.85462 7.67642H13.8782V4.96331C13.8781 4.92188 13.8671 4.88119 13.8462 4.84521C13.8253 4.80924 13.7953 4.77921 13.7591 4.75806L8.13178 1.50669C8.06708 1.46993 7.9937 1.45057 7.91899 1.45057C7.84429 1.45057 7.7709 1.46993 7.70621 1.50669L2.03719 4.74424C1.9817 4.77611 1.93565 4.82173 1.90362 4.87655C1.87159 4.93137 1.8547 4.99348 1.85462 5.05672V7.67642Z" fill="black"/>
<path d="M15.19 7.67642H14.0273V7.96964H15.19V7.67642Z" fill="black"/>
<path d="M15.1899 10.728H0.662598V10.8536H15.1899V10.728Z" fill="black"/>
<path d="M7.92291 14.6914C7.84323 14.6915 7.7649 14.6712 7.69565 14.6324L1.97003 11.4204C1.91845 11.3911 1.87559 11.349 1.84572 11.2982C1.81585 11.2475 1.80001 11.19 1.7998 11.1314V10.7908H1.92748V11.1314C1.9277 11.1679 1.93764 11.2038 1.9563 11.2354C1.97497 11.267 2.00171 11.2932 2.03387 11.3115L7.75949 14.523C7.81013 14.5515 7.86751 14.5662 7.9258 14.5658C7.9841 14.5653 8.04124 14.5497 8.09143 14.5205L13.9141 11.1393C13.9474 11.12 13.975 11.0924 13.9942 11.0593C14.0133 11.0263 14.0234 10.9889 14.0235 10.9508V10.7908H14.1511V10.9508C14.1512 11.0106 14.1355 11.0693 14.1057 11.1214C14.0759 11.1734 14.0329 11.217 13.9809 11.2478L8.15569 14.629C8.08514 14.6699 8.00477 14.6914 7.92291 14.6914Z" fill="black"/>
<path d="M6.27734 12.4508V12.099H6.36501V12.3771H6.54205V12.4508H6.27734Z" fill="black"/>
<path d="M6.75749 12.4563C6.73267 12.4565 6.70806 12.4518 6.68514 12.4424C6.66306 12.4336 6.64299 12.4206 6.6261 12.404C6.60922 12.3875 6.59587 12.3678 6.58683 12.3461C6.57256 12.3127 6.56867 12.2758 6.57563 12.2402C6.5826 12.2045 6.60012 12.1717 6.62599 12.1459C6.64294 12.1293 6.66304 12.1162 6.68514 12.1073C6.73155 12.0889 6.78342 12.0889 6.82983 12.1073C6.85188 12.1163 6.87196 12.1294 6.88899 12.1459C6.90574 12.1624 6.91904 12.1821 6.92814 12.2037C6.94688 12.2494 6.94688 12.3004 6.92814 12.3461C6.91904 12.3677 6.90574 12.3873 6.88899 12.4039C6.87232 12.4204 6.85251 12.4335 6.83069 12.4424C6.8075 12.4519 6.78259 12.4566 6.75749 12.4563ZM6.75749 12.3796C6.77028 12.3797 6.78293 12.377 6.79451 12.3717C6.80614 12.3666 6.81647 12.359 6.82473 12.3495C6.8335 12.3398 6.84029 12.3286 6.84473 12.3164C6.85446 12.2893 6.85446 12.2597 6.84473 12.2326C6.84019 12.2204 6.83341 12.2092 6.82473 12.1995C6.8164 12.19 6.80609 12.1825 6.79451 12.1773C6.78285 12.1722 6.77023 12.1697 6.75749 12.1698C6.74466 12.1694 6.73191 12.1718 6.72019 12.177C6.70848 12.1821 6.69809 12.1898 6.68982 12.1995C6.68143 12.2093 6.67481 12.2205 6.67025 12.2326C6.66051 12.2597 6.66051 12.2893 6.67025 12.3164C6.67471 12.3285 6.68134 12.3397 6.68982 12.3495C6.69824 12.359 6.70864 12.3666 6.72032 12.3718C6.73199 12.377 6.74467 12.3797 6.75749 12.3796Z" fill="black"/>
<path d="M7.12854 12.4563C7.10099 12.4566 7.07362 12.452 7.04768 12.4429C7.02102 12.4326 6.99606 12.4185 6.97363 12.401L7.01874 12.3373C7.03841 12.3515 7.05952 12.3635 7.08173 12.3734C7.09845 12.3802 7.11638 12.3838 7.1345 12.3838C7.14547 12.3842 7.15643 12.3827 7.16684 12.3792C7.17486 12.3766 7.18214 12.3721 7.18812 12.3662C7.19278 12.3609 7.19535 12.354 7.19536 12.347C7.19568 12.3424 7.19488 12.3379 7.19302 12.3337C7.19117 12.3296 7.18832 12.3259 7.18472 12.3231C7.17396 12.3158 7.16152 12.3114 7.14854 12.3101L7.07237 12.2971C7.04747 12.2943 7.0244 12.2829 7.00725 12.2649C6.9918 12.2477 6.98358 12.2254 6.98427 12.2025C6.98372 12.1815 6.98966 12.1609 7.0013 12.1434C7.01334 12.1262 7.0302 12.1128 7.04981 12.1049C7.07419 12.0954 7.10023 12.0909 7.12641 12.0915C7.15356 12.0914 7.18054 12.0955 7.20642 12.1036C7.23041 12.111 7.25289 12.1224 7.27281 12.1375L7.23025 12.2004C7.21445 12.1883 7.19696 12.1786 7.17833 12.1715C7.16075 12.1651 7.14217 12.1618 7.12343 12.1618C7.11347 12.1615 7.10353 12.1629 7.09407 12.166C7.08688 12.1682 7.08042 12.1723 7.07534 12.1777C7.07121 12.1825 7.06894 12.1886 7.06896 12.1949C7.06869 12.1989 7.0694 12.2029 7.07103 12.2065C7.07266 12.2102 7.07516 12.2134 7.07832 12.2159C7.08748 12.222 7.09799 12.2258 7.10897 12.2272L7.18046 12.2393C7.20884 12.2422 7.23553 12.2539 7.25664 12.2728C7.2653 12.2815 7.27207 12.2918 7.27654 12.3031C7.281 12.3144 7.28306 12.3265 7.2826 12.3386C7.28313 12.3601 7.27672 12.3812 7.2643 12.3989C7.25075 12.4174 7.23236 12.4318 7.2111 12.4408C7.18498 12.4516 7.15686 12.4568 7.12854 12.4563Z" fill="black"/>
<path d="M7.57434 12.4563C7.54679 12.4566 7.51942 12.452 7.49348 12.4429C7.46682 12.4326 7.44186 12.4185 7.41943 12.401L7.46455 12.3373C7.48429 12.3516 7.50555 12.3636 7.52795 12.3734C7.5445 12.3803 7.56231 12.3839 7.5803 12.3838C7.59127 12.3842 7.60223 12.3827 7.61264 12.3792C7.62058 12.3767 7.62775 12.3722 7.6335 12.3662C7.63853 12.3602 7.64102 12.3525 7.64047 12.3447C7.63991 12.3369 7.63635 12.3296 7.63052 12.3243C7.61964 12.317 7.60704 12.3126 7.59392 12.3114L7.51817 12.2984C7.49327 12.2955 7.4702 12.2841 7.45305 12.2661C7.4376 12.249 7.42938 12.2266 7.43007 12.2037C7.42938 12.1827 7.43536 12.162 7.44719 12.1445C7.45901 12.127 7.47609 12.1136 7.49604 12.1061C7.52025 12.0966 7.54616 12.0921 7.57221 12.0927C7.59936 12.0927 7.62634 12.0968 7.65222 12.1049C7.67621 12.1122 7.69869 12.1237 7.71861 12.1388L7.67605 12.2016C7.66025 12.1896 7.64276 12.1798 7.62413 12.1727C7.60656 12.1663 7.58797 12.1631 7.56924 12.1631C7.55914 12.1628 7.54906 12.1642 7.53944 12.1673C7.53241 12.1695 7.52611 12.1736 7.52115 12.179C7.51701 12.1838 7.51474 12.1899 7.51476 12.1962C7.51449 12.2001 7.5152 12.2041 7.51683 12.2078C7.51846 12.2114 7.52096 12.2146 7.52412 12.2171C7.53341 12.2233 7.54406 12.2272 7.55519 12.2284L7.62626 12.2406C7.65461 12.2435 7.68128 12.2553 7.70244 12.2741C7.71118 12.2827 7.71803 12.293 7.72257 12.3043C7.72711 12.3156 7.72924 12.3277 7.72882 12.3398C7.72923 12.3614 7.72267 12.3825 7.7101 12.4002C7.69666 12.4186 7.67843 12.433 7.65733 12.4421C7.63095 12.4524 7.6027 12.4572 7.57434 12.4563Z" fill="black"/>
<path d="M7.74023 12.4508L7.8794 12.099H7.97983L8.11686 12.4508H8.02239L7.99302 12.3671H7.86195L7.83216 12.4508H7.74023ZM7.88578 12.3H7.96877L7.92621 12.1836L7.88578 12.3Z" fill="black"/>
<path d="M8.15771 12.4508V12.099H8.2407L8.39944 12.3122V12.099H8.48242V12.4508H8.40455L8.239 12.233V12.4529L8.15771 12.4508Z" fill="black"/>
<path d="M8.64598 12.4508V12.1731H8.5332V12.099H8.8511V12.1731H8.7362V12.4508H8.64598Z" fill="black"/>
<path d="M9.04946 12.4563C9.02465 12.4564 9.00006 12.4517 8.97711 12.4425C8.95498 12.4336 8.93487 12.4205 8.91796 12.4039C8.90134 12.3872 8.88806 12.3676 8.8788 12.3461C8.86006 12.3004 8.86006 12.2494 8.8788 12.2037C8.88806 12.1822 8.90134 12.1626 8.91796 12.1459C8.94459 12.1207 8.97805 12.1037 9.0143 12.0969C9.05055 12.09 9.08804 12.0937 9.12223 12.1074C9.1442 12.1163 9.16416 12.1294 9.18096 12.1459C9.19784 12.1624 9.21128 12.1821 9.22054 12.2037C9.23928 12.2494 9.23928 12.3004 9.22054 12.3461C9.21128 12.3677 9.19784 12.3874 9.18096 12.4039C9.16428 12.4206 9.14428 12.4337 9.12223 12.4425C9.09914 12.4518 9.07441 12.4565 9.04946 12.4563ZM9.04946 12.3796C9.06239 12.3798 9.0752 12.3771 9.08691 12.3717C9.09854 12.3666 9.10886 12.359 9.11712 12.3495C9.12574 12.3397 9.13251 12.3285 9.13712 12.3164C9.1464 12.2892 9.1464 12.2598 9.13712 12.2326C9.13242 12.2205 9.12566 12.2093 9.11712 12.1995C9.10871 12.1901 9.09842 12.1826 9.08691 12.1773C9.07514 12.1723 9.06247 12.1698 9.04967 12.1698C9.03687 12.1698 9.0242 12.1723 9.01243 12.1773C9.00092 12.1826 8.99063 12.1901 8.98222 12.1995C8.97354 12.2092 8.96675 12.2205 8.96221 12.2326C8.95248 12.2597 8.95248 12.2893 8.96221 12.3164C8.96665 12.3286 8.97344 12.3398 8.98222 12.3495C8.99047 12.359 9.0008 12.3666 9.01243 12.3717C9.02401 12.377 9.03666 12.3797 9.04946 12.3796Z" fill="black"/>
<path d="M9.42163 12.4563C9.39435 12.4564 9.36726 12.4517 9.34163 12.4425C9.31496 12.4322 9.29001 12.4181 9.26758 12.4006L9.31226 12.3369C9.33207 12.351 9.35332 12.3631 9.37567 12.3729C9.39238 12.3799 9.41032 12.3834 9.42844 12.3834C9.43942 12.3838 9.45037 12.3822 9.46079 12.3788C9.46867 12.3761 9.47582 12.3717 9.48164 12.3658C9.48648 12.3605 9.48907 12.3536 9.48887 12.3465C9.48918 12.3421 9.48841 12.3376 9.48664 12.3334C9.48486 12.3293 9.48213 12.3256 9.47866 12.3227C9.46778 12.3153 9.45518 12.3109 9.44206 12.3097L9.36588 12.2967C9.34105 12.2937 9.31805 12.2823 9.30077 12.2644C9.28562 12.2471 9.27758 12.2249 9.27822 12.202C9.27772 12.1812 9.28349 12.1606 9.29481 12.143C9.30694 12.1272 9.32309 12.1149 9.34163 12.1074C9.366 12.0979 9.39204 12.0934 9.41823 12.094C9.44537 12.094 9.47234 12.0981 9.49824 12.1061C9.52223 12.1135 9.5447 12.125 9.56463 12.14L9.52207 12.2029C9.50638 12.1907 9.48886 12.1809 9.47015 12.174C9.45272 12.1676 9.43427 12.1643 9.41568 12.1643C9.40557 12.164 9.39548 12.1654 9.38589 12.1685C9.3787 12.1707 9.37224 12.1748 9.36716 12.1802C9.36302 12.185 9.36076 12.1911 9.36078 12.1974C9.36059 12.2014 9.36139 12.2054 9.36309 12.2091C9.36479 12.2127 9.36735 12.2159 9.37057 12.2184C9.37969 12.2245 9.39021 12.2284 9.40121 12.2297L9.4727 12.2418C9.50102 12.2449 9.52766 12.2566 9.54888 12.2753C9.55754 12.284 9.56431 12.2943 9.56878 12.3056C9.57324 12.3169 9.57531 12.329 9.57484 12.3411C9.57457 12.3625 9.56742 12.3834 9.55441 12.4006C9.54121 12.4192 9.52291 12.4337 9.50164 12.4425C9.47618 12.4523 9.44897 12.457 9.42163 12.4563Z" fill="black"/>
<path d="M2.4716 7.6362V7.46488L2.88994 7.50216C2.72978 7.2907 2.60758 7.05382 2.52863 6.80178H2.78099C2.61988 6.60125 2.49834 6.37279 2.42266 6.12822H2.56948C2.40812 5.86614 2.30824 5.57191 2.27711 5.267C2.2658 5.43612 2.23291 5.60317 2.17923 5.76421C2.13743 5.89062 2.08282 6.01257 2.01624 6.12822L2.17413 6.13325C2.14073 6.23901 2.10079 6.34267 2.05454 6.44364C2.00266 6.55635 1.94265 6.66526 1.87495 6.76953L2.06007 6.78587C2.04563 6.88177 2.02372 6.97643 1.99454 7.06903C1.95419 7.19758 1.89952 7.32134 1.83154 7.43807L2.13583 7.43262L2.12519 7.6362H2.4716Z" fill="black"/>
<path d="M2.49309 7.65715H2.10157L2.11221 7.45399L1.79346 7.45985L1.81218 7.4276C1.87916 7.31221 1.93324 7.19002 1.97347 7.06317C1.99992 6.97854 2.02025 6.89217 2.03433 6.80472L1.83729 6.78755L1.85602 6.75864C1.9779 6.56981 2.07472 6.36639 2.14413 6.15336L1.97943 6.14791L1.99688 6.11775C2.14685 5.85646 2.23501 5.56523 2.25477 5.26575H2.29733C2.31476 5.43203 2.35263 5.59561 2.41011 5.75291C2.4571 5.88003 2.51653 6.00237 2.58757 6.11817L2.60715 6.15001H2.45181C2.5272 6.38138 2.64457 6.59738 2.79823 6.78755L2.82546 6.82148H2.55778C2.63618 7.0613 2.75422 7.28675 2.90717 7.48876L2.93569 7.52604L2.49309 7.48666V7.65715ZM2.14625 7.61526H2.45054V7.44184L2.84504 7.47745C2.69719 7.27317 2.58354 7.0469 2.50841 6.80723L2.4999 6.78001H2.7378C2.66501 6.6853 2.60052 6.58469 2.54501 6.47925C2.48697 6.36839 2.43925 6.25259 2.40245 6.13325L2.39394 6.10644H2.53267C2.46846 5.99774 2.4142 5.88364 2.37053 5.76547C2.33105 5.6578 2.3006 5.54712 2.27946 5.43456C2.26226 5.54829 2.23536 5.66038 2.19903 5.76966C2.15994 5.88543 2.11052 5.99757 2.05135 6.10477L2.202 6.11021L2.19349 6.13619C2.16019 6.24278 2.11996 6.34716 2.07306 6.44867C2.02562 6.55197 1.97146 6.65215 1.91091 6.74859L2.0837 6.76367L2.08029 6.78545C2.06583 6.88249 2.04378 6.97828 2.01433 7.07197C1.97712 7.19031 1.92793 7.30468 1.86751 7.41336L2.15774 7.40833L2.14625 7.61526Z" fill="black"/>
<path d="M13.6087 7.6362V7.46488L14.027 7.50216C13.8669 7.2907 13.7447 7.05382 13.6657 6.80178H13.9185C13.7571 6.60139 13.6354 6.3729 13.5597 6.12822H13.7066C13.6345 6.01134 13.5743 5.88772 13.527 5.75919C13.4689 5.60025 13.4306 5.43499 13.4129 5.267C13.4018 5.43611 13.369 5.60316 13.3155 5.76421C13.2733 5.89048 13.2187 6.01239 13.1525 6.12822L13.3099 6.13325C13.2765 6.23901 13.2366 6.34267 13.1903 6.44364C13.1384 6.55626 13.0786 6.66515 13.0112 6.76953L13.1959 6.78587C13.1816 6.88176 13.1598 6.97643 13.1308 7.06903C13.0902 7.19751 13.0356 7.32126 12.9678 7.43807L13.2716 7.43262L13.261 7.6362H13.6087Z" fill="black"/>
<path d="M13.6304 7.65715H13.2388L13.2499 7.45399L12.9312 7.45985L12.9495 7.4276C13.0618 7.23513 13.1372 7.02401 13.172 6.80472L12.975 6.78755L12.9941 6.75864C13.0608 6.65489 13.1201 6.5467 13.1716 6.43485C13.2139 6.34322 13.2507 6.24923 13.2818 6.15336L13.1176 6.14791L13.1346 6.11775C13.2845 5.85646 13.3727 5.56523 13.3925 5.26575H13.435C13.4525 5.43203 13.4903 5.59561 13.5478 5.75291C13.5948 5.87975 13.6543 6.00179 13.7253 6.11733L13.7448 6.14917H13.5891C13.6644 6.38083 13.7817 6.59713 13.9355 6.78755L13.9627 6.82148H13.6951C13.7734 7.0613 13.8915 7.28675 14.0444 7.48876L14.073 7.52604L13.6304 7.48666V7.65715ZM13.284 7.61526H13.5878V7.44184L13.9823 7.47745C13.8345 7.27317 13.7208 7.0469 13.6457 6.80723L13.6372 6.78001H13.8755C13.8024 6.6855 13.7379 6.58486 13.6827 6.47925C13.6245 6.3684 13.5767 6.2526 13.5397 6.13325L13.5316 6.10644H13.6695C13.6053 5.99774 13.551 5.88364 13.5074 5.76547C13.4681 5.65774 13.4376 5.54708 13.4163 5.43456C13.3993 5.54832 13.3724 5.66044 13.3359 5.76966C13.2969 5.88546 13.2474 5.99761 13.1882 6.10477L13.3388 6.11021L13.3308 6.13619C13.2628 6.35116 13.1677 6.5569 13.0478 6.74859L13.2205 6.76367L13.2171 6.78545C13.203 6.88255 13.181 6.97837 13.1512 7.07197C13.1139 7.19024 13.0649 7.30459 13.0048 7.41336L13.2946 7.40833L13.284 7.61526Z" fill="black"/>
<path d="M3.37158 7.63621V7.48625H3.75161C3.62031 7.34661 3.51462 7.1856 3.43924 7.0104V6.93542H3.67586C3.60219 6.85132 3.53491 6.762 3.47456 6.66817C3.41844 6.58078 3.36852 6.48966 3.32519 6.39548H3.44733C3.40477 6.30249 3.35838 6.19902 3.3171 6.08509C3.27126 5.95914 3.23317 5.83059 3.20305 5.70013C3.17344 5.94757 3.09602 6.18715 2.97494 6.40595H3.10517C3.04762 6.61401 2.93291 6.80243 2.77365 6.9505H3.01282C2.94205 7.14862 2.8255 7.32787 2.67236 7.4741H3.06772L3.06219 7.63495L3.37158 7.63621Z" fill="black"/>
<path d="M3.39289 7.65715H3.03967L3.0452 7.49629H2.61963L2.65708 7.46027C2.75409 7.36766 2.83657 7.26136 2.90178 7.14485C2.93276 7.08938 2.95978 7.03186 2.98264 6.97269H2.72049L2.75922 6.93625C2.90918 6.7972 3.01889 6.62141 3.07712 6.42689H2.93923L2.95625 6.39589C3.00947 6.29933 3.05445 6.19859 3.09073 6.09471C3.13506 5.96583 3.16558 5.83274 3.18181 5.69761L3.19628 5.57739L3.22394 5.69552C3.25395 5.82523 3.29175 5.95307 3.33714 6.07838C3.37509 6.1831 3.41841 6.28586 3.46694 6.38626L3.48098 6.41642H3.35842C3.39813 6.49915 3.4429 6.57944 3.49247 6.65685C3.55231 6.74983 3.61887 6.83844 3.69164 6.92201L3.72228 6.95635H3.46056V7.0062C3.53475 7.17754 3.63825 7.33509 3.76654 7.472L3.79973 7.50718H3.39204L3.39289 7.65715ZM3.08393 7.61526H3.35033V7.4653H3.70398C3.6407 7.39354 3.58375 7.31661 3.53375 7.23533C3.49096 7.16574 3.45327 7.09323 3.42098 7.01835V7.01039V6.91321H3.63376C3.50308 6.75804 3.39415 6.5863 3.3099 6.40259L3.29586 6.37327H3.418C3.37544 6.28112 3.33544 6.18645 3.30097 6.09094C3.2665 5.99544 3.23756 5.9037 3.21202 5.8082C3.17665 6.00895 3.10989 6.2031 3.01413 6.38374H3.1367L3.12946 6.41013C3.10288 6.50719 3.06384 6.60051 3.01328 6.68785C2.9626 6.77572 2.90083 6.85694 2.82943 6.92955H3.04307L3.03286 6.95719C3.00734 7.02839 2.97603 7.09746 2.93923 7.1637C2.8802 7.26899 2.80753 7.36629 2.72304 7.45315H3.08903L3.08393 7.61526Z" fill="black"/>
<path d="M4.18017 7.63621V7.48625H4.5602C4.4289 7.34661 4.32321 7.1856 4.24783 7.0104V6.93542H4.48445C4.41078 6.85132 4.3435 6.762 4.28316 6.66817C4.22703 6.58078 4.17712 6.48966 4.13378 6.39548H4.25592C4.21336 6.30249 4.16698 6.19902 4.1257 6.08509C4.07985 5.95914 4.04176 5.83059 4.01164 5.70013C3.98204 5.94757 3.90461 6.18715 3.78354 6.40595H3.91376C3.85621 6.61401 3.74151 6.80243 3.58224 6.9505H3.82141C3.75064 7.14862 3.6341 7.32787 3.48096 7.4741H3.87631L3.87078 7.63495L4.18017 7.63621Z" fill="black"/>
<path d="M4.20148 7.65715H3.84826L3.85379 7.49629H3.42822L3.46567 7.46027C3.56269 7.36766 3.64516 7.26136 3.71038 7.14485C3.74136 7.08938 3.76837 7.03186 3.79123 6.97269H3.52908L3.56781 6.93625C3.71777 6.7972 3.82748 6.62141 3.88571 6.42689H3.74783L3.76485 6.39589C3.81806 6.29933 3.86305 6.19859 3.89933 6.09471C3.94365 5.96583 3.97418 5.83274 3.9904 5.69761L4.00487 5.57739L4.03253 5.69552C4.06254 5.82523 4.10034 5.95307 4.14573 6.07838C4.18368 6.1831 4.227 6.28586 4.27553 6.38626L4.28958 6.41642H4.16701C4.20673 6.49915 4.25149 6.57944 4.30107 6.65685C4.3609 6.74983 4.42746 6.83844 4.50023 6.92201L4.53087 6.95635H4.26915V7.0062C4.34335 7.17754 4.44684 7.33509 4.57513 7.472L4.60833 7.50718H4.20063L4.20148 7.65715ZM3.89252 7.61526H4.15893V7.4653H4.51257C4.44929 7.39354 4.39235 7.31661 4.34235 7.23533C4.29955 7.16574 4.26186 7.09323 4.22957 7.01835V7.01039V6.91321H4.44236C4.31167 6.75804 4.20275 6.5863 4.1185 6.40259L4.10445 6.37327H4.22659C4.18403 6.28112 4.14403 6.18645 4.10956 6.09094C4.07509 5.99544 4.04615 5.9037 4.02062 5.8082C3.98524 6.00895 3.91849 6.2031 3.82273 6.38374H3.94529L3.93806 6.41013C3.91147 6.50719 3.87243 6.60051 3.82187 6.68785C3.77119 6.77572 3.70942 6.85694 3.63803 6.92955H3.85166L3.84145 6.95719C3.81594 7.02839 3.78463 7.09746 3.74783 7.1637C3.6888 7.26899 3.61612 7.36629 3.53164 7.45315H3.89763L3.89252 7.61526Z" fill="black"/>
<path d="M11.5119 7.65045V7.49965H11.8949C11.8195 7.41902 11.7522 7.33134 11.694 7.23785C11.6516 7.1693 11.6143 7.09775 11.5825 7.0238V6.94882H11.8192C11.7455 6.86472 11.6782 6.77539 11.6179 6.68157C11.5619 6.59408 11.512 6.50298 11.4685 6.40888H11.5911C11.5464 6.31588 11.5017 6.21242 11.4604 6.09848C11.4148 5.97248 11.3767 5.84394 11.3464 5.71353C11.3295 5.85101 11.298 5.98636 11.2523 6.11733C11.216 6.22248 11.1706 6.32436 11.1165 6.42186H11.2468C11.2206 6.51715 11.1823 6.60878 11.1327 6.69456C11.0744 6.79556 11.0012 6.88758 10.9157 6.96767H11.1544C11.0835 7.16572 10.967 7.34494 10.814 7.49127H11.2089L11.2034 7.65212L11.5119 7.65045Z" fill="black"/>
<path d="M11.5345 7.67137H11.1813L11.1868 7.51052H10.7612L10.7987 7.4745C10.8955 7.38179 10.9778 7.2755 11.043 7.15908C11.0739 7.10361 11.101 7.04609 11.1238 6.98692H10.8617L10.9004 6.95048C11.0504 6.81143 11.1601 6.63564 11.2183 6.44112H11.0804L11.0974 6.41054C11.1506 6.31384 11.1956 6.21296 11.2319 6.10894C11.2762 5.98006 11.3068 5.84697 11.323 5.71184L11.3375 5.59204L11.3651 5.70975C11.3953 5.83942 11.4331 5.96726 11.4783 6.09261C11.5162 6.19691 11.56 6.30205 11.606 6.40049L11.6205 6.43064H11.4979C11.5373 6.51355 11.5821 6.59386 11.6319 6.67108C11.6915 6.76425 11.7581 6.85288 11.8311 6.93624L11.8613 6.97058H11.5996V7.02043C11.6308 7.09195 11.6671 7.16124 11.7081 7.22778C11.7653 7.3202 11.8318 7.40678 11.9064 7.48623L11.9396 7.52141H11.5319L11.5345 7.67137ZM11.2255 7.62949H11.4919V7.47953H11.8456C11.7824 7.40767 11.7255 7.33074 11.6754 7.24956C11.6327 7.17988 11.595 7.10738 11.5626 7.03258V7.02462V6.9287H11.7754C11.6448 6.77358 11.5359 6.602 11.4515 6.4185L11.4379 6.38876H11.5545C11.5119 6.2966 11.4719 6.20193 11.4375 6.10643C11.403 6.01092 11.3741 5.91919 11.3485 5.82368C11.3131 6.02444 11.2464 6.21859 11.1506 6.39923H11.2736L11.2664 6.42562C11.2396 6.52261 11.2006 6.61591 11.1502 6.70334C11.0995 6.79131 11.0376 6.87254 10.9659 6.94503H11.1834L11.1732 6.97268C11.1478 7.04395 11.1165 7.11303 11.0796 7.17919C11.0205 7.28447 10.9479 7.38177 10.8634 7.46864H11.2298L11.2255 7.62949Z" fill="black"/>
<path d="M12.593 7.65045V7.49965H12.973C12.8974 7.41913 12.8301 7.33144 12.7721 7.23785C12.7296 7.1693 12.6924 7.09775 12.6606 7.0238V6.94882H12.8972C12.8236 6.86472 12.7563 6.77539 12.6959 6.68157C12.64 6.59408 12.5901 6.50298 12.5466 6.40888H12.6687C12.6261 6.31588 12.5798 6.21242 12.5385 6.09848C12.4926 5.97254 12.4545 5.84399 12.4244 5.71353C12.408 5.8501 12.377 5.9846 12.3321 6.11482C12.2957 6.21996 12.2503 6.32184 12.1963 6.41935H12.3265C12.269 6.62741 12.1543 6.81583 11.995 6.9639H12.2355C12.1647 7.16202 12.0482 7.34126 11.895 7.4875H12.2904L12.2848 7.64835L12.593 7.65045Z" fill="black"/>
<path d="M12.6141 7.6714H12.2609L12.2664 7.51055H11.8408L11.8787 7.47452C11.9755 7.38181 12.0578 7.27552 12.123 7.1591C12.154 7.10363 12.181 7.04611 12.2038 6.98694H11.9417L11.9804 6.9505C12.1304 6.81145 12.2401 6.63566 12.2983 6.44114H12.1604L12.1774 6.41014C12.2975 6.1938 12.3741 5.95672 12.403 5.71186L12.4175 5.59164L12.4451 5.70977C12.4752 5.83946 12.513 5.9673 12.5583 6.09263C12.5963 6.19735 12.6396 6.30011 12.6881 6.40051L12.7022 6.43067H12.5796C12.6193 6.51349 12.6642 6.59379 12.7141 6.6711C12.7737 6.7642 12.8403 6.85283 12.9133 6.93626L12.9435 6.97061H12.6817V7.02045C12.7562 7.19185 12.86 7.3494 12.9886 7.48625L13.0218 7.52144H12.6141V7.6714ZM12.3051 7.62951H12.5715V7.47955H12.9252C12.8619 7.40779 12.8049 7.33086 12.7549 7.24958C12.7121 7.17999 12.6745 7.10748 12.6422 7.0326V7.02464V6.92872H12.855C12.7923 6.85401 12.7345 6.77552 12.6817 6.69372C12.6252 6.60547 12.5749 6.51352 12.5311 6.41852L12.5175 6.38878H12.6392C12.5966 6.29662 12.5566 6.20196 12.5222 6.10645C12.4877 6.01094 12.4587 5.91921 12.4332 5.8237C12.4153 5.92509 12.3894 6.02495 12.3558 6.12237C12.3229 6.21759 12.2827 6.31016 12.2353 6.39925H12.3583L12.3507 6.42564C12.3241 6.52269 12.285 6.61602 12.2345 6.70336C12.1838 6.79123 12.122 6.87244 12.0506 6.94505H12.2681L12.2579 6.9727C12.2325 7.04397 12.2012 7.11305 12.1643 7.17921C12.1052 7.2845 12.0326 7.38179 11.9481 7.46866H12.3145L12.3051 7.62951Z" fill="black"/>
<path d="M3.03657 4.19507L4.65289 3.70582L5.04143 3.74561L5.68532 3.70582L5.77469 3.834L5.60361 3.98647L5.6117 4.06648L6.53263 3.70582L7.34504 3.08797H7.64124L6.94033 3.58518L7.73061 3.28065L8.14639 3.27228L8.3013 3.13614L9.37672 3.64131L10.4853 4.19507L9.78441 3.68948L10.9496 4.25916H11.3539L11.8935 4.47573H12.2374L10.8143 3.914H11.2918L11.9846 4.00239L12.7587 4.17874H13.0792L12.1093 3.63503L11.6259 3.67357L10.9088 3.40087L10.3794 3.60948L9.5478 2.94345H9.13244L8.6758 2.60667H8.51281L8.25236 2.42236L7.81232 2.65484L7.34504 2.63892L6.23941 3.40087L5.92151 3.28861L5.56318 3.44904L5.18272 3.12818L3.55917 3.70498L2.76123 4.16114L3.03657 4.19507Z" fill="black"/>
<path d="M12.3476 4.49668H11.8858L11.3496 4.28179H10.9444L9.99671 3.8185L10.4976 4.17958L10.4755 4.21519L9.36899 3.66184L8.30506 3.16253L8.15484 3.2949L7.73523 3.30328L6.79131 3.66687L7.57564 3.11059H7.35264L6.54108 3.72677L5.59376 4.0979L5.58184 3.97977L5.74696 3.83233L5.67504 3.72886L5.04307 3.76824L4.65538 3.72845L3.03821 4.21812L2.69775 4.17623L3.54889 3.68907L5.18734 3.1064L5.56695 3.42643L5.92102 3.26809L6.23637 3.37952L7.33902 2.61966L7.80715 2.636L8.25357 2.39975L8.51998 2.58783H8.68297L9.13918 2.92293H9.55454L10.3818 3.58561L10.9078 3.37868L11.6283 3.65263L12.1131 3.61409L13.1587 4.20053H12.7531L11.9803 4.02292L11.2896 3.93495H10.9244L12.3476 4.49668ZM11.8977 4.45479H12.1267L10.7036 3.89307H11.2913L11.9871 3.98103L12.7612 4.15738H12.9987L12.105 3.65472L11.6232 3.69326L10.9096 3.42182L10.3759 3.63126L9.54092 2.96105H9.12556L8.66935 2.62595H8.50636L8.25102 2.44541L7.81736 2.67412L7.35179 2.6582L6.24275 3.42266L5.92272 3.30956L5.55971 3.47167L5.1767 3.15039L3.56464 3.723L2.8267 4.14858L3.03481 4.17414L4.65197 3.68488L5.04477 3.72677L5.69717 3.68488L5.80399 3.83819L5.62738 3.99569L5.63163 4.03758L6.52533 3.68823L7.34115 3.06787H7.71012L7.09261 3.50602L7.73352 3.26055L8.14122 3.25259L8.30081 3.11227L9.38431 3.62247L10.2601 4.0602L9.76988 3.70666L9.79201 3.67064L10.953 4.23823H11.3602L11.8977 4.45479Z" fill="black"/>
<path d="M1.77559 9.89062V8.96572H1.39258V8.71942H2.4514V8.96572H2.06838V9.89229L1.77559 9.89062Z" fill="black"/>
<path d="M2.61963 9.89064V8.71777H3.1984C3.27386 8.71635 3.34857 8.73273 3.4163 8.76552C3.47744 8.79521 3.52901 8.84104 3.56525 8.89789C3.60157 8.95601 3.62018 9.02318 3.61887 9.09141C3.62012 9.16216 3.599 9.23154 3.55844 9.28996C3.51816 9.34716 3.46244 9.39214 3.39757 9.41981L3.64781 9.89064H3.32097L3.10478 9.46003H2.91242V9.89064H2.61963ZM2.91242 9.23383H3.17074C3.21106 9.23563 3.25048 9.2218 3.28054 9.19529C3.29445 9.18245 3.30543 9.16685 3.31277 9.14952C3.32011 9.13219 3.32363 9.11353 3.3231 9.09476C3.32386 9.07584 3.32045 9.05698 3.3131 9.03949C3.30576 9.02199 3.29465 9.00626 3.28054 8.99339C3.25028 8.96731 3.21092 8.95379 3.17074 8.95569H2.912L2.91242 9.23383Z" fill="black"/>
<path d="M3.7041 9.89061L4.16882 8.71774H4.50247L4.96038 9.89061H4.64376L4.54503 9.6108H4.10924L4.00881 9.89061H3.7041ZM4.18925 9.38796H4.46672L4.32884 8.99923L4.18925 9.38796Z" fill="black"/>
<path d="M5.07959 9.89061V8.71774H5.37238V9.89061H5.07959Z" fill="black"/>
<path d="M5.62109 9.89061V8.71774H5.91389V9.64431H6.50458V9.89061H5.62109Z" fill="black"/>
<path d="M7.13933 9.90907C7.04768 9.90948 6.95667 9.89418 6.87037 9.86383C6.78199 9.83175 6.69884 9.78716 6.62354 9.73146L6.77334 9.51867C6.83975 9.56614 6.91108 9.60658 6.98612 9.63931C7.0417 9.6621 7.10125 9.67406 7.16146 9.67449C7.19814 9.67524 7.23469 9.66986 7.26955 9.65858C7.29598 9.65051 7.31996 9.63612 7.33934 9.61669C7.35552 9.599 7.36433 9.57597 7.36403 9.55218C7.365 9.53714 7.36234 9.5221 7.35628 9.50826C7.35021 9.49443 7.34091 9.48221 7.32913 9.47259C7.29243 9.44949 7.25075 9.43514 7.20742 9.4307L6.95208 9.38882C6.86936 9.37869 6.79271 9.34082 6.73503 9.28158C6.68357 9.22383 6.65647 9.14891 6.65928 9.07214C6.65737 9.00244 6.67696 8.9338 6.71546 8.87527C6.75552 8.8176 6.81211 8.77298 6.87803 8.74709C6.95907 8.71482 7.04597 8.69928 7.13337 8.70143C7.22414 8.70139 7.31435 8.71553 7.40063 8.74332C7.4808 8.76738 7.55581 8.80571 7.62192 8.85642L7.47382 9.06586C7.42102 9.02394 7.36204 8.99018 7.29891 8.96574C7.24065 8.9444 7.17894 8.93361 7.11677 8.93391C7.08327 8.93306 7.04988 8.93788 7.01804 8.94815C6.99403 8.95537 6.97252 8.969 6.95591 8.98753C6.9421 9.00339 6.93455 9.02361 6.93463 9.04449C6.93392 9.05771 6.93641 9.0709 6.94188 9.08299C6.94736 9.09507 6.95566 9.10571 6.96612 9.11403C6.99722 9.13388 7.03238 9.14675 7.06911 9.15173L7.30743 9.19362C7.4025 9.20338 7.49193 9.2427 7.56277 9.30588C7.5914 9.33483 7.61371 9.36923 7.62835 9.40697C7.64298 9.44472 7.64963 9.48501 7.64788 9.52537C7.64908 9.59714 7.62735 9.66747 7.58575 9.72643C7.54101 9.78694 7.47999 9.83395 7.40956 9.86215C7.32365 9.89568 7.23171 9.91164 7.13933 9.90907Z" fill="black"/>
<path d="M8.20508 9.89064V8.71777H8.78385C8.85931 8.71635 8.93402 8.73273 9.00175 8.76552C9.06289 8.79521 9.11446 8.84104 9.15069 8.89789C9.18702 8.95601 9.20563 9.02318 9.20432 9.09141C9.20556 9.16216 9.18445 9.23154 9.14389 9.28996C9.10361 9.34716 9.04789 9.39214 8.98302 9.41981L9.23326 9.89064H8.90642L8.69023 9.46003H8.49787V9.89064H8.20508ZM8.49787 9.23383H8.75662C8.79693 9.23563 8.83635 9.2218 8.86641 9.19529C8.88032 9.18245 8.89131 9.16685 8.89865 9.14952C8.90598 9.13219 8.9095 9.11353 8.90897 9.09476C8.90973 9.07584 8.90633 9.05698 8.89898 9.03949C8.89163 9.02199 8.88052 9.00626 8.86641 8.99339C8.83615 8.96731 8.79679 8.95379 8.75662 8.95569H8.49787V9.23383Z" fill="black"/>
<path d="M9.96192 9.90906C9.87903 9.90964 9.79686 9.89398 9.72019 9.86298C9.57066 9.79887 9.45261 9.67964 9.39135 9.53086C9.33009 9.38208 9.3305 9.21559 9.3925 9.0671C9.45407 8.92134 9.57195 8.80562 9.72019 8.7454C9.87519 8.68342 10.0486 8.68342 10.2036 8.7454C10.3519 8.80562 10.4698 8.92134 10.5313 9.0671C10.5791 9.17854 10.5921 9.30141 10.5687 9.42014C10.5454 9.53887 10.4868 9.6481 10.4003 9.73396C10.3439 9.78922 10.2771 9.83305 10.2036 9.86298C10.127 9.89398 10.0448 9.90964 9.96192 9.90906ZM9.96192 9.6527C10.0048 9.65294 10.0471 9.64408 10.0862 9.62673C10.1245 9.60931 10.1587 9.5842 10.1866 9.55301C10.2154 9.52041 10.2379 9.48294 10.253 9.44242C10.2848 9.35292 10.2848 9.25546 10.253 9.16596C10.2378 9.12536 10.2153 9.08777 10.1866 9.05496C10.1587 9.02389 10.1245 8.99892 10.0862 8.98165C10.0278 8.95515 9.96221 8.94797 9.89931 8.96119C9.83641 8.9744 9.77955 9.0073 9.73721 9.05496C9.70839 9.08766 9.68589 9.12528 9.67083 9.16596C9.63904 9.25546 9.63904 9.35292 9.67083 9.44242C9.68579 9.48302 9.70831 9.52052 9.73721 9.55301C9.76494 9.58438 9.79919 9.60952 9.83765 9.62673C9.87669 9.64408 9.91908 9.65294 9.96192 9.6527Z" fill="black"/>
<path d="M11.2911 9.90737C11.194 9.9095 11.0979 9.8873 11.0119 9.84286C10.9337 9.80114 10.8697 9.7376 10.828 9.66023C10.7832 9.57399 10.761 9.4781 10.7634 9.38125V8.71774H11.0561V9.38125C11.0551 9.4297 11.065 9.47776 11.0851 9.522C11.1031 9.56088 11.1321 9.59383 11.1686 9.61694C11.2051 9.64005 11.2476 9.65234 11.2911 9.65234C11.3345 9.65234 11.377 9.64005 11.4135 9.61694C11.45 9.59383 11.479 9.56088 11.497 9.522C11.5171 9.47776 11.527 9.4297 11.526 9.38125V8.71774H11.8188V9.38125C11.8212 9.4781 11.7989 9.57399 11.7541 9.66023C11.7125 9.73738 11.6489 9.80087 11.5711 9.84286C11.4849 9.88749 11.3885 9.90969 11.2911 9.90737Z" fill="black"/>
<path d="M12.3464 9.89062V8.96572H11.9634V8.71942H13.0222V8.96572H12.6392V9.89229L12.3464 9.89062Z" fill="black"/>
<path d="M13.1909 9.89061V8.71774H14.0914V8.95902H13.4837V9.18187H13.9127V9.41644H13.4837V9.64934H14.0982V9.89061H13.1909Z" fill="black"/>
</svg>
