<svg width="96" height="99" viewBox="0 0 96 99" fill="none" xmlns="http://www.w3.org/2000/svg">
<path d="M85.0571 49.314H3.97581V47.518H9.33799V31.4724C9.33927 30.7707 9.52331 30.0816 9.87182 29.4735C10.2203 28.8654 10.7212 28.3595 11.3245 28.0062L45.3259 8.16857C45.9885 7.78145 46.7413 7.57753 47.5078 7.57753C48.2743 7.57753 49.0271 7.78145 49.6897 8.16857L83.4536 28.0832C83.9394 28.3716 84.3422 28.782 84.6224 29.2741C84.9027 29.7662 85.0507 30.323 85.052 30.89L85.0571 49.314ZM11.1279 47.518H83.2697V30.9003C83.2689 30.6465 83.2026 30.3973 83.0773 30.1769C82.952 29.9566 82.7719 29.7727 82.5548 29.6431L48.7909 9.72848C48.4027 9.5033 47.9624 9.38475 47.5142 9.38475C47.066 9.38475 46.6256 9.5033 46.2375 9.72848L12.2234 29.5584C11.8904 29.7537 11.6141 30.0331 11.422 30.3688C11.2298 30.7046 11.1284 31.0851 11.1279 31.4724V47.518Z" fill="white"/>
<path d="M91.1394 47.518H84.1634V49.314H91.1394V47.518Z" fill="white"/>
<path d="M91.1394 66.2088H3.97581V66.9785H91.1394V66.2088Z" fill="white"/>
<path d="M47.5372 90.4851C47.0591 90.4856 46.5891 90.3609 46.1736 90.1233L11.8199 70.4499C11.5104 70.2703 11.2532 70.0124 11.074 69.7017C10.8948 69.3911 10.7998 69.0386 10.7985 68.6796V66.5937H11.5646V68.6796C11.5659 68.9034 11.6255 69.123 11.7375 69.3166C11.8495 69.5101 12.01 69.6709 12.2029 69.7828L46.5566 89.4537C46.8605 89.6277 47.2048 89.718 47.5545 89.7153C47.9043 89.7126 48.2471 89.617 48.5483 89.4383L83.4842 68.7283C83.684 68.6097 83.8496 68.4409 83.9646 68.2384C84.0797 68.036 84.1403 67.8069 84.1404 67.5738V66.5937H84.9065V67.5738C84.9068 67.9397 84.8129 68.2996 84.634 68.6183C84.455 68.937 84.197 69.2039 83.8851 69.3928L48.9339 90.1028C48.5105 90.353 48.0283 90.485 47.5372 90.4851Z" fill="white"/>
<path d="M37.6656 76.7614V74.6062H38.1916V76.3098H39.2539V76.7614H37.6656Z" fill="white"/>
<path d="M40.5459 76.7947C40.397 76.7962 40.2493 76.7674 40.1118 76.7101C39.9793 76.6562 39.8589 76.5762 39.7576 76.4748C39.6563 76.3735 39.5762 76.2528 39.522 76.12C39.4363 75.9151 39.413 75.6893 39.4548 75.4711C39.4966 75.2528 39.6017 75.0519 39.7569 74.8936C39.8586 74.7922 39.9792 74.712 40.1118 74.6575C40.3903 74.5445 40.7015 74.5445 40.98 74.6575C41.1122 74.7127 41.2327 74.7928 41.3349 74.8936C41.4354 74.9951 41.5152 75.1153 41.5698 75.2476C41.6823 75.5274 41.6823 75.8402 41.5698 76.12C41.5152 76.2522 41.4354 76.3725 41.3349 76.474C41.2349 76.5751 41.116 76.6553 40.9851 76.7101C40.8459 76.768 40.6965 76.7969 40.5459 76.7947ZM40.5459 76.3252C40.6226 76.3259 40.6986 76.3093 40.768 76.2765C40.8378 76.2453 40.8998 76.1989 40.9493 76.1405C41.002 76.0813 41.0427 76.0125 41.0693 75.9378C41.1277 75.7718 41.1277 75.5907 41.0693 75.4247C41.0421 75.3502 41.0014 75.2815 40.9493 75.222C40.8994 75.164 40.8375 75.1176 40.768 75.086C40.6981 75.055 40.6224 75.0393 40.5459 75.0398C40.4689 75.0375 40.3924 75.0526 40.3221 75.0842C40.2518 75.1157 40.1895 75.1628 40.1399 75.222C40.0895 75.2823 40.0498 75.3509 40.0224 75.4247C39.964 75.5907 39.964 75.7718 40.0224 75.9378C40.0492 76.0119 40.089 76.0805 40.1399 76.1405C40.1904 76.1987 40.2528 76.2453 40.3229 76.2772C40.3929 76.3091 40.469 76.3255 40.5459 76.3252Z" fill="white"/>
<path d="M42.7725 76.7947C42.6072 76.7965 42.4429 76.7687 42.2873 76.7126C42.1273 76.6498 41.9776 76.5633 41.843 76.4561L42.1137 76.0661C42.2317 76.1526 42.3583 76.2266 42.4916 76.2867C42.5919 76.3289 42.6995 76.3507 42.8082 76.3509C42.8741 76.3533 42.9398 76.3437 43.0023 76.3226C43.0504 76.3064 43.0941 76.2791 43.13 76.2431C43.1579 76.2102 43.1733 76.1684 43.1734 76.1251C43.1753 76.0973 43.1705 76.0695 43.1594 76.0441C43.1482 76.0186 43.1311 75.9962 43.1095 75.9789C43.045 75.9344 42.9703 75.9071 42.8925 75.8993L42.4354 75.8198C42.286 75.8024 42.1476 75.7324 42.0447 75.6222C41.952 75.5171 41.9027 75.3804 41.9069 75.2399C41.9035 75.1117 41.9392 74.9855 42.009 74.8782C42.0813 74.7729 42.1824 74.6909 42.3001 74.6421C42.4463 74.5844 42.6026 74.5564 42.7597 74.56C42.9226 74.5599 43.0845 74.585 43.2397 74.6344C43.3837 74.6795 43.5186 74.7499 43.6381 74.8423L43.3827 75.2271C43.2879 75.1534 43.183 75.0938 43.0712 75.0501C42.9658 75.011 42.8542 74.9911 42.7418 74.9911C42.6821 74.9892 42.6224 74.9979 42.5656 75.0167C42.5225 75.0303 42.4838 75.0551 42.4533 75.0886C42.4285 75.1179 42.4149 75.1552 42.415 75.1938C42.4134 75.2181 42.4176 75.2425 42.4274 75.2648C42.4372 75.2872 42.4522 75.3068 42.4712 75.322C42.5261 75.3595 42.5891 75.3832 42.655 75.3913L43.084 75.4657C43.2542 75.4834 43.4144 75.5553 43.5411 75.671C43.593 75.7239 43.6337 75.7869 43.6605 75.8562C43.6872 75.9254 43.6996 75.9995 43.6968 76.0738C43.7 76.2055 43.6615 76.3348 43.587 76.4432C43.5057 76.5562 43.3954 76.6449 43.2678 76.6998C43.1111 76.7658 42.9424 76.7981 42.7725 76.7947Z" fill="white"/>
<path d="M45.4459 76.7947C45.2806 76.7965 45.1164 76.7687 44.9608 76.7126C44.8008 76.6498 44.651 76.5633 44.5165 76.4561L44.7871 76.0661C44.9056 76.1533 45.0332 76.2272 45.1676 76.2867C45.2668 76.3293 45.3737 76.3511 45.4816 76.3509C45.5475 76.3533 45.6132 76.3437 45.6757 76.3226C45.7234 76.307 45.7664 76.2797 45.8008 76.2431C45.831 76.2061 45.846 76.159 45.8426 76.1113C45.8393 76.0636 45.818 76.0189 45.783 75.9865C45.7177 75.9417 45.6421 75.9143 45.5634 75.907L45.1089 75.8275C44.9595 75.8101 44.8211 75.7401 44.7182 75.6299C44.6254 75.5248 44.5761 75.3881 44.5803 75.2476C44.5761 75.119 44.612 74.9923 44.683 74.8851C44.7539 74.7779 44.8564 74.6957 44.9761 74.6498C45.1214 74.5918 45.2768 74.5639 45.4331 74.5677C45.596 74.5678 45.7579 74.5929 45.9132 74.6421C46.0571 74.6872 46.192 74.7576 46.3115 74.85L46.0562 75.2348C45.9613 75.1611 45.8564 75.1014 45.7447 75.0578C45.6392 75.0187 45.5277 74.9988 45.4153 74.9988C45.3547 74.9972 45.2942 75.0058 45.2365 75.0244C45.1943 75.0384 45.1565 75.0631 45.1267 75.0963C45.1019 75.1256 45.0883 75.1629 45.0884 75.2015C45.0868 75.2258 45.0911 75.2502 45.1008 75.2725C45.1106 75.2949 45.1256 75.3145 45.1446 75.3297C45.2003 75.3675 45.2642 75.3913 45.331 75.399L45.7574 75.4734C45.9275 75.4916 46.0875 75.5634 46.2145 75.6787C46.2669 75.7313 46.308 75.7943 46.3353 75.8636C46.3625 75.9328 46.3753 76.007 46.3728 76.0815C46.3752 76.2135 46.3359 76.3428 46.2604 76.4509C46.1798 76.5636 46.0704 76.6522 45.9438 76.7075C45.7856 76.7706 45.6161 76.8003 45.4459 76.7947Z" fill="white"/>
<path d="M46.4417 76.7614L47.2767 74.6062H47.8793L48.7015 76.7614H48.1347L47.9585 76.2482H47.172L46.9933 76.7614H46.4417ZM47.315 75.8377H47.8129L47.5576 75.1245L47.315 75.8377Z" fill="white"/>
<path d="M48.9466 76.7614V74.6062H49.4446L50.397 75.9121V74.6062H50.8949V76.7614H50.4276L49.4343 75.4272V76.7742L48.9466 76.7614Z" fill="white"/>
<path d="M51.8754 76.7614V75.0603H51.1988V74.6062H53.1062V75.0603H52.4167V76.7614H51.8754Z" fill="white"/>
<path d="M54.2961 76.7947C54.1472 76.7957 53.9997 76.7669 53.862 76.7101C53.7292 76.6559 53.6086 76.5756 53.5071 76.474C53.4074 76.3718 53.3277 76.2517 53.2721 76.12C53.1597 75.8402 53.1597 75.5274 53.2721 75.2476C53.3277 75.1159 53.4074 74.9958 53.5071 74.8936C53.6668 74.7395 53.8676 74.6352 54.0851 74.5933C54.3026 74.5514 54.5275 74.5737 54.7327 74.6575C54.8645 74.7121 54.9843 74.7923 55.0851 74.8936C55.1864 74.995 55.267 75.1152 55.3225 75.2476C55.435 75.5274 55.435 75.8402 55.3225 76.12C55.267 76.2524 55.1864 76.3726 55.0851 76.474C54.985 76.5762 54.865 76.6565 54.7327 76.7101C54.5942 76.7671 54.4458 76.7959 54.2961 76.7947ZM54.2961 76.3252C54.3737 76.3263 54.4505 76.3097 54.5208 76.2765C54.5906 76.2453 54.6525 76.1989 54.7021 76.1405C54.7538 76.0807 54.7944 76.012 54.8221 75.9378C54.8777 75.7713 54.8777 75.5911 54.8221 75.4247C54.7938 75.3507 54.7533 75.2822 54.7021 75.222C54.6516 75.1646 54.5899 75.1183 54.5208 75.086C54.4502 75.0556 54.3742 75.0399 54.2973 75.0399C54.2205 75.0399 54.1445 75.0556 54.0739 75.086C54.0048 75.1183 53.9431 75.1646 53.8926 75.222C53.8405 75.2815 53.7998 75.3503 53.7726 75.4247C53.7142 75.5907 53.7142 75.7718 53.7726 75.9378C53.7992 76.0125 53.84 76.0813 53.8926 76.1405C53.9422 76.1989 54.0041 76.2453 54.0739 76.2765C54.1434 76.3093 54.2193 76.3259 54.2961 76.3252Z" fill="white"/>
<path d="M56.5303 76.7947C56.3666 76.7952 56.2041 76.7665 56.0503 76.7101C55.8903 76.6472 55.7405 76.5607 55.606 76.4535L55.8741 76.0635C55.9929 76.1501 56.1204 76.2241 56.2545 76.2842C56.3547 76.3266 56.4624 76.3484 56.5712 76.3483C56.637 76.3505 56.7027 76.3409 56.7652 76.3201C56.8125 76.3038 56.8554 76.2765 56.8903 76.2405C56.9194 76.2083 56.9349 76.166 56.9337 76.1225C56.9356 76.095 56.931 76.0675 56.9203 76.0421C56.9097 76.0167 56.8933 75.9942 56.8725 75.9763C56.8072 75.9314 56.7316 75.9041 56.6529 75.8967L56.1958 75.8172C56.0468 75.7986 55.9088 75.7288 55.8051 75.6197C55.7142 75.5136 55.6659 75.3773 55.6698 75.2374C55.6668 75.1096 55.7015 74.9837 55.7694 74.8756C55.8421 74.7792 55.939 74.7039 56.0503 74.6575C56.1965 74.5997 56.3528 74.5718 56.5099 74.5754C56.6727 74.5757 56.8346 74.6008 56.9899 74.6498C57.1339 74.6949 57.2687 74.7653 57.3882 74.8577L57.1329 75.2425C57.0388 75.1677 56.9337 75.108 56.8214 75.0655C56.7168 75.0264 56.6061 75.0064 56.4945 75.0065C56.4339 75.0043 56.3734 75.013 56.3158 75.0321C56.2727 75.0457 56.2339 75.0704 56.2035 75.104C56.1786 75.1333 56.165 75.1706 56.1652 75.2092C56.1641 75.2337 56.1688 75.2581 56.179 75.2805C56.1892 75.3028 56.2046 75.3223 56.2239 75.3374C56.2786 75.3753 56.3417 75.3991 56.4077 75.4067L56.8367 75.4811C57.0066 75.5 57.1664 75.5717 57.2938 75.6864C57.3457 75.7392 57.3864 75.8023 57.4132 75.8716C57.44 75.9408 57.4523 76.0149 57.4495 76.0892C57.4479 76.2206 57.405 76.3481 57.327 76.4535C57.2477 76.5674 57.1379 76.6564 57.0103 76.7101C56.8576 76.7703 56.6943 76.7991 56.5303 76.7947Z" fill="white"/>
<path d="M14.8304 47.2717V46.2224L17.3404 46.4507C16.3795 45.1556 15.6463 43.7047 15.1726 42.1609H16.6867C15.7201 40.9326 14.9908 39.5333 14.5368 38.0354H15.4177C14.4495 36.4301 13.8502 34.628 13.6635 32.7604C13.5956 33.7962 13.3983 34.8194 13.0762 35.8058C12.8254 36.58 12.4977 37.327 12.0982 38.0354L13.0456 38.0662C12.8452 38.714 12.6056 39.3489 12.328 39.9673C12.0168 40.6577 11.6567 41.3247 11.2505 41.9634L12.3612 42.0634C12.2746 42.6508 12.1431 43.2307 11.968 43.7978C11.7259 44.5852 11.3979 45.3432 10.9901 46.0582L12.8157 46.0248L12.7519 47.2717H14.8304Z" fill="white"/>
<path d="M14.9581 47.4H12.6089L12.6728 46.1557L10.7602 46.1916L10.8726 45.994C11.2745 45.2873 11.5989 44.5389 11.8403 43.7619C11.999 43.2435 12.121 42.7146 12.2055 42.1789L11.0232 42.0737L11.1356 41.8967C11.8669 40.7401 12.4478 39.4942 12.8643 38.1893L11.8761 38.156L11.9808 37.9712C12.8806 36.3708 13.4095 34.587 13.5282 32.7527H13.7835C13.888 33.7712 14.1153 34.7731 14.4601 35.7365C14.7421 36.5152 15.0987 37.2645 15.5249 37.9738L15.6424 38.1688H14.7104C15.1627 39.5859 15.8669 40.9089 16.7889 42.0737L16.9523 42.2815H15.3462C15.8166 43.7504 16.5249 45.1313 17.4425 46.3686L17.6136 46.597L14.9581 46.3558V47.4ZM12.877 47.1434H14.7027V46.0813L17.0697 46.2993C16.1826 45.0482 15.5007 43.6622 15.05 42.1943L14.9989 42.0275H16.4263C15.9896 41.4475 15.6026 40.8312 15.2696 40.1854C14.9213 39.5064 14.635 38.7971 14.4142 38.0662L14.3631 37.902H15.1955C14.8103 37.2362 14.4847 36.5373 14.2227 35.8135C13.9858 35.154 13.8031 34.4761 13.6763 33.7866C13.5731 34.4832 13.4117 35.1698 13.1937 35.8392C12.9592 36.5483 12.6626 37.2351 12.3076 37.8917L13.2115 37.925L13.1605 38.0841C12.9606 38.737 12.7193 39.3763 12.4378 39.9981C12.1532 40.6308 11.8282 41.2444 11.465 41.8351L12.5017 41.9275L12.4812 42.0609C12.3945 42.6552 12.2622 43.2419 12.0855 43.8158C11.8622 44.5407 11.5671 45.2412 11.2045 45.9068L12.946 45.876L12.877 47.1434Z" fill="white"/>
<path d="M81.6534 47.2717V46.2224L84.1634 46.4507C83.2025 45.1556 82.4693 43.7047 81.9956 42.1609H83.5123C82.5436 40.9335 81.8134 39.534 81.3598 38.0354H82.2407C81.8082 37.3194 81.4473 36.5623 81.1631 35.775C80.8149 34.8015 80.5851 33.7893 80.4788 32.7604C80.4119 33.7962 80.2155 34.8194 79.8941 35.8058C79.6411 36.5792 79.3136 37.3259 78.9161 38.0354L79.8609 38.0662C79.6605 38.714 79.4209 39.3489 79.1434 39.9673C78.8319 40.6571 78.4727 41.3241 78.0684 41.9634L79.1766 42.0634C79.0909 42.6508 78.9603 43.2306 78.7859 43.7978C78.5427 44.5848 78.2148 45.3427 77.8079 46.0582L79.6311 46.0248L79.5673 47.2717H81.6534Z" fill="white"/>
<path d="M81.7811 47.4H79.4319L79.4983 46.1557L77.5858 46.1916L77.6956 45.994C78.3694 44.8152 78.8221 43.522 79.031 42.1789L77.8488 42.0737L77.9637 41.8967C78.3639 41.2612 78.7197 40.5985 79.0285 39.9134C79.2823 39.3522 79.5032 38.7765 79.6898 38.1893L78.7042 38.156L78.8063 37.9712C79.7062 36.3708 80.2351 34.587 80.3537 32.7527H80.609C80.7136 33.7712 80.9408 34.7731 81.2857 35.7365C81.5679 36.5134 81.9245 37.261 82.3505 37.9687L82.4679 38.1637H81.5334C81.9851 39.5826 82.6894 40.9074 83.6119 42.0737L83.7753 42.2815H82.1692C82.6396 43.7504 83.3479 45.1313 84.2655 46.3686L84.4366 46.597L81.7811 46.3558V47.4ZM79.7026 47.1434H81.5257V46.0813L83.8928 46.2993C83.0056 45.0482 82.3237 43.6622 81.873 42.1943L81.8219 42.0275H83.2518C82.8134 41.4487 82.4263 40.8323 82.0951 40.1854C81.7461 39.5065 81.4589 38.7971 81.2372 38.0662L81.1887 37.902H82.016C81.6307 37.2362 81.3052 36.5373 81.0431 35.8135C80.8075 35.1536 80.6247 34.4758 80.4967 33.7866C80.3948 34.4835 80.2333 35.1702 80.0141 35.8392C79.7801 36.5484 79.4835 37.2353 79.1281 37.8917L80.032 37.925L79.9835 38.0841C79.5758 39.4009 79.0053 40.661 78.2854 41.8351L79.3221 41.9275L79.3017 42.0609C79.2171 42.6556 79.0848 43.2425 78.9059 43.8158C78.6824 44.5402 78.3882 45.2406 78.0275 45.9068L79.7664 45.876L79.7026 47.1434Z" fill="white"/>
<path d="M20.2309 47.2717V46.3532H22.5111C21.7233 45.4979 21.0892 44.5118 20.6369 43.4386V42.9794H22.0566C21.6145 42.4643 21.2109 41.9172 20.8488 41.3425C20.512 40.8072 20.2126 40.2491 19.9526 39.6723H20.6854C20.43 39.1027 20.1517 38.469 19.904 37.7711C19.629 36.9997 19.4004 36.2123 19.2197 35.4133C19.0421 36.9288 18.5775 38.3963 17.8511 39.7364H18.6324C18.2872 41.0108 17.5989 42.1648 16.6433 43.0718H18.0783C17.6537 44.2853 16.9544 45.3831 16.0356 46.2788H18.4077L18.3745 47.264L20.2309 47.2717Z" fill="white"/>
<path d="M20.3586 47.4H18.2392L18.2724 46.4148H15.719L15.9437 46.1941C16.5258 45.6269 17.0206 44.9758 17.4119 44.2622C17.5978 43.9225 17.7599 43.5701 17.8971 43.2077H16.3241L16.5565 42.9845C17.4563 42.1328 18.1146 41.0561 18.4639 39.8647H17.6366L17.7387 39.6748C18.058 39.0834 18.3279 38.4664 18.5456 37.8301C18.8116 37.0407 18.9947 36.2255 19.0921 35.3979L19.1789 34.6615L19.3448 35.385C19.5249 36.1795 19.7517 36.9626 20.0241 37.7301C20.2517 38.3715 20.5117 39.0009 20.8028 39.6158L20.8871 39.8005H20.1517C20.39 40.3073 20.6586 40.7991 20.956 41.2732C21.3151 41.8427 21.7144 42.3855 22.1511 42.8973L22.3349 43.1077H20.7645V43.413C21.2097 44.4624 21.8307 45.4274 22.6005 46.266L22.7996 46.4815H20.3534L20.3586 47.4ZM18.5048 47.1434H20.1032V46.2249H22.2251C21.8454 45.7854 21.5037 45.3142 21.2037 44.8164C20.947 44.3902 20.7208 43.946 20.5271 43.4874V43.4386V42.8434H21.8038C21.0197 41.893 20.3661 40.8411 19.8606 39.7159L19.7764 39.5363H20.5092C20.2539 38.9718 20.0138 38.392 19.807 37.807C19.6002 37.222 19.4266 36.6602 19.2733 36.0752C19.0611 37.3048 18.6606 38.494 18.086 39.6004H18.8214L18.778 39.762C18.6185 40.3565 18.3842 40.9281 18.0809 41.4631C17.7768 42.0013 17.4062 42.4987 16.9778 42.9435H18.2596L18.1984 43.1128C18.0453 43.5489 17.8574 43.9719 17.6366 44.3777C17.2824 45.0226 16.8464 45.6185 16.3395 46.1505H18.5354L18.5048 47.1434Z" fill="white"/>
<path d="M25.0824 47.2717V46.3532H27.3626C26.5748 45.4979 25.9406 44.5118 25.4884 43.4386V42.9794H26.9081C26.466 42.4643 26.0624 41.9172 25.7003 41.3425C25.3635 40.8072 25.0641 40.2491 24.8041 39.6723H25.5369C25.2815 39.1027 25.0032 38.469 24.7555 37.7711C24.4805 36.9997 24.2519 36.2123 24.0712 35.4133C23.8936 36.9288 23.429 38.3963 22.7026 39.7364H23.4839C23.1386 41.0108 22.4504 42.1648 21.4948 43.0718H22.9298C22.5052 44.2853 21.8059 45.3831 20.8871 46.2788H23.2592L23.226 47.264L25.0824 47.2717Z" fill="white"/>
<path d="M25.21 47.4H23.0907L23.1239 46.4148H20.5705L20.7952 46.1941C21.3773 45.6269 21.8721 44.9758 22.2634 44.2622C22.4493 43.9225 22.6114 43.5701 22.7486 43.2077H21.1756L21.408 42.9845C22.3078 42.1328 22.9661 41.0561 23.3154 39.8647H22.4881L22.5902 39.6748C22.9095 39.0834 23.1794 38.4664 23.3971 37.8301C23.6631 37.0407 23.8462 36.2255 23.9436 35.3979L24.0304 34.6615L24.1963 35.385C24.3764 36.1795 24.6032 36.9626 24.8756 37.7301C25.1032 38.3715 25.3632 39.0009 25.6543 39.6158L25.7386 39.8005H25.0032C25.2415 40.3073 25.5101 40.7991 25.8075 41.2732C26.1666 41.8427 26.5659 42.3855 27.0026 42.8973L27.1864 43.1077H25.616V43.413C26.0612 44.4624 26.6822 45.4274 27.452 46.266L27.6511 46.4815H25.2049L25.21 47.4ZM23.3563 47.1434H24.9547V46.2249H27.0766C26.6969 45.7854 26.3552 45.3142 26.0552 44.8164C25.7985 44.3902 25.5723 43.946 25.3786 43.4874V43.4386V42.8434H26.6553C25.8712 41.893 25.2176 40.8411 24.7121 39.7159L24.6279 39.5363H25.3607C25.1054 38.9718 24.8653 38.392 24.6585 37.807C24.4517 37.222 24.2781 36.6602 24.1248 36.0752C23.9126 37.3048 23.5121 38.494 22.9375 39.6004H23.6729L23.6295 39.762C23.47 40.3565 23.2357 40.9281 22.9324 41.4631C22.6283 42.0013 22.2577 42.4987 21.8293 42.9435H23.1111L23.0499 43.1128C22.8968 43.5489 22.7089 43.9719 22.4881 44.3777C22.1339 45.0226 21.6979 45.6185 21.191 46.1505H23.3869L23.3563 47.1434Z" fill="white"/>
<path d="M69.0727 47.359V46.4353H71.3708C70.9181 45.9415 70.5144 45.4044 70.1656 44.8318C69.9107 44.4119 69.6871 43.9737 69.4966 43.5207V43.0615H70.9163C70.4742 42.5464 70.0706 41.9993 69.7085 41.4246C69.3727 40.8887 69.0733 40.3307 68.8123 39.7544H69.5476C69.2795 39.1848 69.0114 38.5511 68.7637 37.8532C68.4898 37.0814 68.2613 36.2941 68.0794 35.4954C67.9784 36.3374 67.7893 37.1665 67.5151 37.9687C67.2971 38.6126 67.0246 39.2367 66.7006 39.8339H67.4819C67.3252 40.4175 67.0952 40.9788 66.7976 41.5041C66.4474 42.1228 66.0086 42.6864 65.4954 43.1769H66.9278C66.5024 44.39 65.8032 45.4877 64.8851 46.384H67.2547L67.2215 47.3692L69.0727 47.359Z" fill="white"/>
<path d="M69.208 47.4872H67.0887L67.1219 46.502H64.5685L64.7932 46.2814C65.3739 45.7135 65.8678 45.0625 66.2588 44.3494C66.4447 44.0097 66.6068 43.6573 66.744 43.295H65.1711L65.4034 43.0718C66.3032 42.2201 66.9615 41.1434 67.3108 39.9519H66.4835L66.5857 39.7646C66.905 39.1723 67.1749 38.5545 67.3926 37.9173C67.6585 37.1279 67.8416 36.3128 67.939 35.4851L68.0258 34.7513L68.1918 35.4723C68.3727 36.2665 68.5995 37.0495 68.871 37.8173C69.0982 38.4561 69.3612 39.1001 69.637 39.703L69.7238 39.8878H68.9884C69.2247 40.3955 69.4934 40.8875 69.7928 41.3605C70.1501 41.9311 70.5495 42.474 70.9878 42.9845L71.1691 43.1949H69.5987V43.5002C69.786 43.9383 70.0036 44.3626 70.2498 44.7702C70.5931 45.3363 70.9917 45.8666 71.4397 46.3532L71.6389 46.5687H69.1927L69.208 47.4872ZM67.3542 47.2307H68.9527V46.3122H71.0746C70.6957 45.872 70.3541 45.4009 70.0532 44.9036C69.7974 44.4768 69.5713 44.0328 69.3766 43.5746V43.5259V42.9383H70.6533C69.87 41.9883 69.2165 40.9373 68.7101 39.8134L68.6284 39.6312H69.328C69.0727 39.0668 68.8327 38.4869 68.6259 37.902C68.419 37.317 68.2454 36.7551 68.0922 36.1701C67.8799 37.3998 67.4794 38.5889 66.9049 39.6954H67.6428L67.5994 39.857C67.4388 40.4511 67.2046 41.0225 66.9023 41.558C66.5982 42.0969 66.2266 42.5944 65.7967 43.0384H67.1015L67.0402 43.2077C66.8882 43.6443 66.7003 44.0674 66.4784 44.4726C66.1242 45.1175 65.6882 45.7134 65.1813 46.2455H67.3798L67.3542 47.2307Z" fill="white"/>
<path d="M75.5584 47.359V46.4353H77.8386C77.3851 45.9422 76.9814 45.405 76.6334 44.8318C76.3786 44.4119 76.155 43.9737 75.9644 43.5207V43.0615H77.3841C76.9421 42.5464 76.5384 41.9993 76.1763 41.4246C75.8405 40.8887 75.5411 40.3307 75.2801 39.7544H76.0129C75.7576 39.1848 75.4792 38.5511 75.2316 37.8532C74.9565 37.0818 74.728 36.2944 74.5472 35.4954C74.4485 36.3319 74.2628 37.1557 73.9931 37.9533C73.7752 38.5972 73.5026 39.2213 73.1786 39.8185H73.96C73.6147 41.0929 72.9264 42.2469 71.9708 43.1538H73.4135C72.9889 44.3674 72.2896 45.4652 71.3708 46.3609H73.7429L73.7097 47.3461L75.5584 47.359Z" fill="white"/>
<path d="M75.6861 47.4872H73.5667L73.5999 46.502H71.0465L71.2737 46.2814C71.8544 45.7135 72.3483 45.0625 72.7394 44.3494C72.9253 44.0097 73.0874 43.6573 73.2246 43.295H71.6517L71.884 43.0718C72.7838 42.2201 73.4421 41.1433 73.7914 39.9519H72.9641L73.0662 39.762C73.7865 38.437 74.246 36.9848 74.4196 35.4851L74.5064 34.7488L74.6723 35.4723C74.8528 36.2667 75.0796 37.0497 75.3516 37.8173C75.5792 38.4587 75.8392 39.0881 76.1304 39.703L76.2146 39.8878H75.4792C75.7174 40.3951 75.9869 40.8869 76.2861 41.3605C76.6441 41.9307 77.0435 42.4735 77.4811 42.9845L77.6624 43.1949H76.092V43.5002C76.5388 44.55 77.1615 45.515 77.9331 46.3532L78.1322 46.5687H75.6861V47.4872ZM73.8323 47.2307H75.4307V46.3122H77.5526C77.1729 45.8727 76.8312 45.4015 76.5312 44.9036C76.2744 44.4774 76.0483 44.0333 75.8546 43.5746V43.5259V42.9383H77.1313C76.7554 42.4807 76.4083 42 76.092 41.499C75.7529 40.9585 75.4509 40.3953 75.1881 39.8134L75.1064 39.6312H75.8367C75.5814 39.0668 75.3413 38.4869 75.1345 37.9019C74.9277 37.317 74.7541 36.7551 74.6008 36.1701C74.4936 36.7911 74.3382 37.4028 74.1361 37.9994C73.9392 38.5827 73.6976 39.1497 73.4135 39.6953H74.1515L74.1055 39.857C73.946 40.4514 73.7118 41.0231 73.4084 41.558C73.1043 42.0962 72.7337 42.5937 72.3053 43.0384H73.6101L73.5488 43.2077C73.3968 43.6443 73.2089 44.0674 72.9871 44.4726C72.6329 45.1175 72.1969 45.7134 71.69 46.2455H73.8884L73.8323 47.2307Z" fill="white"/>
<path d="M18.2188 26.1949L27.9167 23.1982L30.2479 23.4419L34.1113 23.1982L34.6475 23.9833L33.621 24.9172L33.6695 25.4072L39.1951 23.1982L44.0696 19.4138H45.8468L41.6413 22.4593L46.383 20.594L48.8777 20.5427L49.8071 19.7089L56.2596 22.8031L62.9113 26.1949L58.7058 23.0981L65.6971 26.5874H68.1228L71.3606 27.9138H73.4237L64.8851 24.4733H67.75L71.907 25.0147L76.5517 26.0948H78.4744L72.6551 22.7646L69.7545 23.0006L65.452 21.3304L62.2755 22.6081L57.2861 18.5287H54.794L52.0542 16.4659H51.0762L49.5135 15.337L46.8733 16.7609L44.0696 16.6634L37.4358 21.3304L35.5284 20.6428L33.3784 21.6254L31.0957 19.6601L21.3544 23.193L16.5667 25.987L18.2188 26.1949Z" fill="white"/>
<path d="M74.0851 28.0421H71.3146L68.0973 26.7259H65.6664L59.98 23.8883L62.9853 26.0999L62.8526 26.318L56.2137 22.9288L49.8301 19.8705L48.9288 20.6813L46.4111 20.7326L40.7476 22.9596L45.4536 19.5524H44.1156L39.2462 23.3265L33.5623 25.5996L33.4908 24.8761L34.4815 23.973L34.05 23.3393L30.2582 23.5805L27.932 23.3367L18.229 26.336L16.1863 26.0794L21.2931 23.0955L31.1238 19.5267L33.4014 21.4869L35.5259 20.5171L37.4179 21.1995L44.0339 16.5454L46.8426 16.6455L49.5212 15.1985L51.1196 16.3504H52.0976L54.8348 18.403H57.327L62.2908 22.4618L65.4468 21.1944L69.7698 22.8723L72.6781 22.6363L78.9519 26.2282H76.5185L71.8815 25.1404L67.7373 24.6016H65.5464L74.0851 28.0421ZM71.3861 27.7856H72.7598L64.2212 24.345H67.7475L71.9223 24.8838L76.567 25.9639H77.9918L72.6296 22.8852L69.7391 23.1212L65.4571 21.4587L62.2551 22.7415L57.2453 18.6364H54.7531L52.0159 16.5839H51.0379L49.5058 15.4781L46.9039 16.879L44.1105 16.7815L37.4562 21.4638L35.5361 20.7711L33.358 21.764L31.0599 19.7961L21.3876 23.3034L16.96 25.9101L18.2086 26.0666L27.9116 23.0699L30.2684 23.3265L34.1828 23.0699L34.8237 24.0089L33.764 24.9736L33.7895 25.2302L39.1517 23.0904L44.0466 19.2907H46.2604L42.5554 21.9744L46.4009 20.4709L48.8471 20.4221L49.8046 19.5626L56.3056 22.6876L61.5605 25.3687L58.619 23.2033L58.7518 22.9827L65.7175 26.4591H68.1611L71.3861 27.7856Z" fill="white"/>
<path d="M10.653 61.0801V55.4151H8.35493V53.9065H14.7078V55.4151H12.4098V61.0903L10.653 61.0801Z" fill="white"/>
<path d="M15.719 61.0801V53.8962H19.1916C19.6444 53.8876 20.0927 53.9879 20.499 54.1887C20.8659 54.3706 21.1753 54.6513 21.3927 54.9995C21.6106 55.3555 21.7223 55.7669 21.7144 56.1848C21.7219 56.6181 21.5952 57.0431 21.3518 57.4009C21.1102 57.7513 20.7759 58.0268 20.3866 58.1963L21.8881 61.0801H19.927L18.6299 58.4426H17.4757V61.0801H15.719ZM17.4757 57.0571H19.0257C19.2676 57.0682 19.5041 56.9834 19.6844 56.8211C19.7679 56.7424 19.8338 56.6469 19.8778 56.5407C19.9219 56.4346 19.943 56.3203 19.9398 56.2053C19.9444 56.0895 19.9239 55.974 19.8798 55.8668C19.8358 55.7596 19.7691 55.6633 19.6844 55.5845C19.5029 55.4247 19.2667 55.3419 19.0257 55.3535H17.4732L17.4757 57.0571Z" fill="white"/>
<path d="M22.2251 61.0801L25.0134 53.8962H27.0153L29.7628 61.0801H27.8631L27.2707 59.3662H24.656L24.0534 61.0801H22.2251ZM25.136 58.0013H26.8008L25.9735 55.6204L25.136 58.0013Z" fill="white"/>
<path d="M30.4778 61.0801V53.8962H32.2345V61.0801H30.4778Z" fill="white"/>
<path d="M33.7257 61.0801V53.8962H35.4825V59.5715H39.0266V61.0801H33.7257Z" fill="white"/>
<path d="M42.8363 61.193C42.2865 61.1955 41.7404 61.1018 41.2225 60.9159C40.6923 60.7194 40.1934 60.4463 39.7416 60.1051L40.6404 58.8018C41.0389 59.0925 41.4668 59.3402 41.9171 59.5407C42.2505 59.6803 42.6078 59.7535 42.9691 59.7562C43.1892 59.7608 43.4085 59.7278 43.6177 59.6587C43.7762 59.6093 43.9201 59.5212 44.0364 59.4021C44.1334 59.2938 44.1863 59.1528 44.1845 59.007C44.1904 58.9149 44.1744 58.8228 44.138 58.738C44.1016 58.6533 44.0458 58.5785 43.9751 58.5196C43.7549 58.378 43.5049 58.2902 43.2449 58.263L41.7128 58.0064C41.2165 57.9444 40.7566 57.7125 40.4106 57.3496C40.1018 56.9959 39.9392 56.537 39.9561 56.0668C39.9446 55.6399 40.0621 55.2194 40.2931 54.8609C40.5335 54.5077 40.873 54.2344 41.2685 54.0758C41.7547 53.8782 42.2762 53.783 42.8006 53.7962C43.3452 53.796 43.8865 53.8826 44.4041 54.0528C44.8851 54.2001 45.3352 54.4349 45.7319 54.7455L44.8433 56.0283C44.5265 55.7716 44.1726 55.5648 43.7938 55.4151C43.4443 55.2844 43.074 55.2183 42.701 55.2201C42.5 55.2149 42.2996 55.2444 42.1086 55.3074C41.9645 55.3516 41.8355 55.435 41.7358 55.5485C41.653 55.6457 41.6077 55.7695 41.6081 55.8975C41.6039 55.9784 41.6188 56.0592 41.6517 56.1332C41.6845 56.2072 41.7343 56.2724 41.7971 56.3234C41.9837 56.4449 42.1947 56.5238 42.415 56.5543L43.8449 56.8108C44.4153 56.8707 44.952 57.1115 45.377 57.4984C45.5487 57.6757 45.6826 57.8865 45.7704 58.1176C45.8583 58.3488 45.8981 58.5956 45.8876 58.8428C45.8948 59.2824 45.7644 59.7132 45.5148 60.0743C45.2464 60.445 44.8803 60.7329 44.4577 60.9056C43.9423 61.111 43.3906 61.2087 42.8363 61.193Z" fill="white"/>
<path d="M49.2301 61.0801V53.8962H52.7027C53.1555 53.8876 53.6037 53.9879 54.0101 54.1887C54.377 54.3706 54.6864 54.6513 54.9038 54.9995C55.1217 55.3555 55.2334 55.7669 55.2255 56.1848C55.233 56.6181 55.1063 57.0431 54.8629 57.4009C54.6213 57.7513 54.287 58.0268 53.8977 58.1963L55.3991 61.0801H53.4381L52.141 58.4426H50.9868V61.0801H49.2301ZM50.9868 57.0571H52.5393C52.7812 57.0682 53.0177 56.9834 53.1981 56.8211C53.2815 56.7424 53.3475 56.6469 53.3915 56.5407C53.4355 56.4346 53.4566 56.3203 53.4534 56.2053C53.458 56.0895 53.4376 55.974 53.3935 55.8668C53.3494 55.7596 53.2827 55.6633 53.1981 55.5845C53.0165 55.4247 52.7804 55.3419 52.5393 55.3535H50.9868V57.0571Z" fill="white"/>
<path d="M59.7706 61.193C59.2733 61.1966 58.7803 61.1006 58.3203 60.9108C57.4231 60.5181 56.7147 59.7878 56.3472 58.8765C55.9796 57.9652 55.9821 56.9455 56.3541 56.036C56.7235 55.1432 57.4308 54.4344 58.3203 54.0656C59.2502 53.6859 60.2909 53.6859 61.2209 54.0656C62.1104 54.4344 62.8177 55.1432 63.1871 56.036C63.4735 56.7185 63.5516 57.4711 63.4116 58.1984C63.2716 58.9256 62.9197 59.5946 62.4006 60.1205C62.0626 60.459 61.6618 60.7274 61.2209 60.9108C60.7609 61.1006 60.2679 61.1966 59.7706 61.193ZM59.7706 59.6228C60.0276 59.6242 60.2819 59.57 60.5162 59.4637C60.7462 59.357 60.9514 59.2032 61.1188 59.0122C61.2913 58.8125 61.4263 58.583 61.5171 58.3348C61.7078 57.7867 61.7078 57.1897 61.5171 56.6415C61.4257 56.3928 61.2908 56.1626 61.1188 55.9616C60.9513 55.7713 60.7461 55.6184 60.5162 55.5126C60.1657 55.3503 59.7724 55.3063 59.395 55.3873C59.0176 55.4682 58.6764 55.6697 58.4224 55.9616C58.2494 56.1619 58.1144 56.3923 58.0241 56.6415C57.8333 57.1897 57.8333 57.7867 58.0241 58.3348C58.1139 58.5835 58.2489 58.8132 58.4224 59.0122C58.5887 59.2043 58.7943 59.3583 59.025 59.4637C59.2592 59.57 59.5136 59.6242 59.7706 59.6228Z" fill="white"/>
<path d="M67.7475 61.1827C67.1648 61.1957 66.5884 61.0598 66.0724 60.7876C65.6031 60.5321 65.2193 60.1429 64.9694 59.669C64.7003 59.1408 64.5669 58.5534 64.5812 57.9602V53.8962H66.338V57.9602C66.3319 58.257 66.3912 58.5513 66.5116 58.8223C66.6198 59.0604 66.7937 59.2623 67.0129 59.4038C67.232 59.5454 67.487 59.6206 67.7475 59.6206C68.008 59.6206 68.263 59.5454 68.4821 59.4038C68.7012 59.2623 68.8752 59.0604 68.9833 58.8223C69.1038 58.5513 69.1631 58.257 69.157 57.9602V53.8962H70.9137V57.9602C70.928 58.5534 70.7946 59.1408 70.5256 59.669C70.2761 60.1415 69.8944 60.5304 69.4276 60.7876C68.9102 61.0609 68.3319 61.1969 67.7475 61.1827Z" fill="white"/>
<path d="M74.08 61.0801V55.4151H71.7819V53.9065H78.1348V55.4151H75.8367V61.0903L74.08 61.0801Z" fill="white"/>
<path d="M79.1459 61.0801V53.8962H84.549V55.3741H80.9027V56.739H83.4765V58.1758H80.9027V59.6023H84.5898V61.0801H79.1459Z" fill="white"/>
</svg>
